<svg xmlns="http://www.w3.org/2000/svg" xmlns:xlink="http://www.w3.org/1999/xlink" x="0px" y="0px" width="39.745px" height="40px" viewBox="0 0 39.745 40" enable-background="new 0 0 39.745 40" xml:space="preserve">
<g>
<path fill="#2C2D7F" d="M39.554,16.017c-0.466-4.051-2.205-7.803-5.104-10.681c-2.567-2.549-5.73-4.044-9.25-4.78
		c-3.395-0.71-6.96-0.711-10.377-0.17c-3.039,0.481-6.159,1.435-8.68,3.248C5.886,3.817,5.831,3.962,5.876,4.072
		c-0.013,0.009-0.027,0.017-0.04,0.026C3.837,5.518,2.427,7.529,1.49,9.774c-2.056,4.927-1.773,10.793-0.427,15.861
		c0.662,2.495,1.668,4.912,3.072,7.081c1.628,2.519,3.908,4.353,6.678,5.505c3.668,1.525,7.797,1.893,11.732,1.763
		c3.746-0.124,7.354-0.678,10.393-3.025c2.821-2.181,4.498-5.548,5.524-8.885C39.642,24.238,40.013,20.002,39.554,16.017z
		 M37.988,22.048c-0.319,3.871-1.258,7.787-3.294,11.132c-0.922,1.518-2.12,2.878-3.586,3.89c-1.582,1.091-3.352,1.561-5.235,1.78
		c-6.911,0.809-15.335-0.023-19.751-6.063c-3.114-4.258-4.459-9.97-4.462-15.179C1.656,12.755,2.989,7.078,7.318,4.264
		c1.646-1.069,3.591-1.512,5.535-1.551c0.369-0.007,0.845-0.115,1.068-0.444c0.212-0.313-0.179-0.489-0.441-0.484
		c-0.527,0.011-1.052,0.052-1.574,0.111c1.525-0.439,3.107-0.704,4.667-0.852c3.678-0.348,7.537,0.035,10.994,1.374
		c3.604,1.397,6.642,4.242,8.451,7.641C37.967,13.717,38.324,17.981,37.988,22.048z"></path>
<path fill="#2C2D7F" d="M22.797,13.447c-1.343,0.663-2.682,1.622-3.724,2.79c-0.53-1.781-1.574-3.7-3.259-4.164
		c-2.728-0.752-4.042,2.891-4.1,4.985c-0.079,2.803,1.038,5.631,2.294,8.082c0.869,1.693,2.02,3.546,3.568,4.786
		c0.04,0.229,0.258,0.354,0.519,0.393c0.245,0.164,0.498,0.314,0.762,0.443c0.701,0.342,1.859-0.674,0.923-1.131
		c-0.145-0.07-0.28-0.16-0.417-0.245c1.329-3.161,4.096-5.441,6.144-8.125c1.021-1.336,1.772-2.78,2.233-4.396
		c0.305-1.062,0.513-2.227,0.004-3.254C26.862,11.821,24.07,12.817,22.797,13.447z M25.688,18.136
		c-0.585,1.458-1.583,2.713-2.59,3.9c-1.732,2.039-3.722,3.959-4.943,6.357c-0.92-0.957-1.654-2.173-2.262-3.23
		c-1.187-2.071-2.073-4.383-2.434-6.747c-0.144-0.933-0.182-1.959,0.074-2.878c0.136-0.492,0.681-2.388,1.425-2.311
		c0.776,0.081,1.403,1.176,1.748,1.76c0.593,1.002,0.948,2.166,1.106,3.315c0.104,0.761,1.36,0.328,1.586-0.11
		c0.824-1.595,2.442-2.847,4-3.672c0.974-0.516,2.701-1.29,2.989,0.265C26.589,15.862,26.081,17.162,25.688,18.136z"></path>
</g>
</svg>
