<svg xmlns="http://www.w3.org/2000/svg" xmlns:xlink="http://www.w3.org/1999/xlink" x="0px" y="0px" width="42.999px" height="39.144px" viewBox="0 0 42.999 39.144" enable-background="new 0 0 42.999 39.144" xml:space="preserve">
<g>
<path fill="#2C2D7F" d="M24.134,15.257c-1.604-0.55-3.521-0.154-5.1,0.286c-0.973,0.271-0.75,1.122,0.228,0.85
		c0.082-0.022,0.165-0.04,0.246-0.062c-1.546,0.71-2.625,2.03-2.309,3.984c0.369,2.28,2.465,3.957,4.7,4.121
		c3.228,0.236,5.614-2.828,5.152-5.924C26.822,16.984,25.538,15.737,24.134,15.257z M22.256,23.455
		c-3.07-0.458-5.329-5.996-1.288-6.698c0.313-0.055,0.835-0.193,0.919-0.565c0.019-0.084,0-0.15-0.039-0.203
		c0.367,0.004,0.735,0.033,1.102,0.12c1.215,0.286,2.126,1.479,2.437,2.638C25.908,20.694,24.59,23.804,22.256,23.455z"></path>
<path fill="#2C2D7F" d="M42.739,7.025c-0.348-1.268-1.011-2.447-1.769-3.511c-1.653-2.318-4.444-4.39-7.377-3.134
		c-2.202,0.944-2.274,3.031-1.606,4.938c-2.293-0.533-4.722-0.159-6.6,1.517c-1.4-0.443-2.787-0.417-4.265,0.237
		c-1.993,0.884-3.74,2.352-5.364,3.777c-2.156,1.895-4.155,3.97-6.078,6.099c-1.824,2.021-3.577,4.11-5.219,6.282
		c-0.624,0.826-1.265,1.68-1.833,2.571c-0.347-0.278-0.704-0.543-1.039-0.838c-0.441-0.387-1.961,0.242-1.506,0.643
		c0.587,0.516,1.202,0.997,1.827,1.467c-0.093,0.187-0.198,0.368-0.279,0.56c-0.167,0.393,0.681,0.39,1.224,0.142
		c2.82,2.014,5.842,3.772,8.359,6.156c1.276,1.21,2.439,2.54,3.792,3.666c0.452,0.377,0.945,0.743,1.509,0.928
		c0.593,0.193,1.271,0.621,1.912,0.621c0.525,0,1.029-0.176,1.362-0.594c0.463-0.584,1.001-0.984,1.587-1.439
		c1.385-1.078,2.29-2.674,3.144-4.175c0.898-1.573,1.715-3.306,2.987-4.62c1.18-1.214,2.557-2.162,3.941-3.128
		c1.484-1.036,2.997-2.078,4.275-3.373c0.805-0.815,1.699-1.926,1.682-3.137c-0.011-0.684-0.263-1.332-0.582-1.94
		c1.456-0.926,2.448-2.313,2.351-4.122c-0.048-0.849-0.333-1.659-0.745-2.413c1.544,0.721,3.375,1.074,4.324-0.549
		C43.191,8.903,42.951,7.801,42.739,7.025z M34.554,21.391c-1.235,1.351-2.813,2.384-4.304,3.425
		c-1.36,0.95-2.794,1.885-3.938,3.099c-1.224,1.298-2.089,2.815-2.958,4.361c-0.63,1.121-1.262,2.243-2.034,3.273
		c-0.715,0.953-1.728,1.483-2.534,2.334c-0.051,0.054-0.096,0.114-0.145,0.171c-0.308-0.129-0.61-0.294-0.926-0.37
		c-0.855-0.209-1.612-1.066-2.225-1.647c-0.894-0.848-1.737-1.747-2.622-2.606c-0.896-0.871-1.889-1.613-2.891-2.358
		c-2.068-1.542-4.263-2.907-6.327-4.45c0.812-1.521,1.991-2.926,3.023-4.253c1.936-2.492,4.013-4.875,6.188-7.159
		c2.052-2.154,4.209-4.28,6.617-6.041c0.837-0.612,1.721-1.194,2.691-1.572c0.572-0.223,1.152-0.218,1.912,0.012
		c2.592,0.784,4.964,2.791,6.931,4.572c1.455,1.319,3.162,2.95,4.115,4.811c-0.113,0.117-0.054,0.225,0.128,0.258
		c0.179,0.382,0.336,0.769,0.439,1.169C35.991,19.561,35.297,20.577,34.554,21.391z M36.411,16.01
		c-0.018-0.028-0.034-0.059-0.052-0.087c-0.733-1.182-1.672-2.237-2.642-3.229c-2.033-2.078-4.405-3.988-7.004-5.311
		c-0.167-0.085-0.332-0.157-0.497-0.23c0.156-0.059,0.304-0.134,0.411-0.239c1.708-1.661,3.962-1.346,5.926-0.32
		c0.19,0.356,0.397,0.695,0.611,1c0.134,0.19,0.59,0.157,0.975,0.019c0.479,0.368,0.918,0.762,1.297,1.158
		c1.107,1.157,1.98,2.66,2.114,4.28C37.648,14.232,37.18,15.235,36.411,16.01z M41.184,9.809c-0.045,0.107-0.092,0.152-0.116,0.174
		c-0.99-0.022-2.105-0.868-2.852-1.382c-0.182-0.125-0.544-0.077-0.876,0.035c-0.295-0.344-0.606-0.667-0.924-0.962
		c-0.68-0.632-1.461-1.164-2.296-1.582c-0.903-1.626-1.606-3.926,0.036-5.144c0.685-0.507,1.928,0.123,2.533,0.476
		c1.109,0.646,2.008,1.664,2.764,2.688c1.003,1.361,1.874,3.127,1.899,4.85C41.356,9.252,41.294,9.542,41.184,9.809z"></path>
<path fill="#2C2D7F" d="M9.956,22.121c-0.267-0.288-1.755,0.301-1.533,0.542c3.28,3.538,8.228,5.073,11.198,8.941
		c0.291,0.378,1.724-0.306,1.623-0.436C18.239,27.255,13.271,25.698,9.956,22.121z"></path>
</g>
</svg>
