<svg xmlns="http://www.w3.org/2000/svg" xmlns:xlink="http://www.w3.org/1999/xlink" x="0px" y="0px" width="39.191px" height="36.973px" viewBox="0 0 39.191 36.973" enable-background="new 0 0 39.191 36.973" xml:space="preserve">
<g>
<path fill="#2C2D7F" d="M32.185,5.328c-2.41-1.734-5.202-2.997-8.012-3.933C20.693,0.236,16.982,0.007,13.34,0
		c-0.4,0-0.828,0.087-1.167,0.313c-0.25,0.168-0.225,0.396,0.107,0.396c2.563,0.005,5.126,0.121,7.651,0.603
		c2.333,0.445,4.581,1.283,6.73,2.288c3.346,1.565,6.485,3.822,8.554,6.927c4.587,6.884,1.796,15.843-3.732,21.268
		c-2.975,2.92-6.884,4.729-11.095,4.441c-1.033-0.069-2.051-0.231-3.055-0.462c3.088-0.602,5.999-1.894,8.607-3.648
		c2.239-1.509,4.383-3.422,5.803-5.744c0.163-0.264-0.601-0.183-0.664-0.171c-0.307,0.054-0.787,0.166-0.965,0.457
		c-1.248,2.039-3.092,3.713-5.019,5.1c-2.408,1.733-5.166,3.027-8.108,3.502c-0.187,0.03-0.493,0.101-0.718,0.23
		c-1.821-0.524-3.572-1.296-5.186-2.299c-1.916-1.192-3.615-2.711-5.026-4.459c4.604-0.184,9.224-1.817,13.198-3.993
		c4.583-2.507,9.191-6.243,10.826-11.397c0.206-0.653-1.466-0.435-1.658,0.177c-1.487,4.688-5.684,8.074-9.813,10.409
		c-3.958,2.238-8.716,3.864-13.334,3.765c-1.134-1.603-2.033-3.368-2.654-5.23c5.307,0.118,10.418-2.277,14.627-5.335
		c4.317-3.135,8.203-7.375,10.463-12.241c0.089-0.187-1.438-0.085-1.621,0.313c-0.72,1.549-1.608,3.016-2.612,4.404
		c-2.886-0.651-5.882-0.594-8.756,0.096c-0.074,0.018-0.194,0.057-0.315,0.113c-0.421-1.122-0.826-2.25-1.249-3.371
		c1.192-0.092,2.367-0.296,3.554-0.471c1.74-0.256,3.287-0.087,4.832,0.799c0.438,0.25,1.968-0.397,1.32-0.768
		c-1.46-0.838-3.024-1.13-4.695-1.017c-1.789,0.122-3.532,0.593-5.331,0.621c-0.371-0.946-0.767-1.883-1.216-2.796
		c-0.274-0.554-1.878-0.02-1.651,0.442c1.71,3.473,2.651,7.263,4.362,10.737c0.272,0.554,1.877,0.02,1.649-0.442
		c-0.489-0.994-0.914-2.015-1.313-3.047c0.102-0.014,0.194-0.032,0.253-0.046c2.56-0.615,5.22-0.567,7.776,0.046
		c0.027,0.006,0.065,0.001,0.099,0.002c-1.697,2.171-3.678,4.132-5.798,5.846c-3.75,3.031-8.424,5.636-13.378,5.5
		c-0.365-0.01-0.784,0.115-1.11,0.29c-0.356-1.134-0.612-2.3-0.75-3.487c-0.251-2.168-0.053-4.355,0.553-6.433
		c1.225,1.513,2.465,3.014,3.683,4.533c0.292,0.365,1.871-0.192,1.546-0.598c-1.442-1.799-2.92-3.569-4.362-5.368
		c-0.062-0.078-0.188-0.106-0.335-0.111c0.177-0.438,0.368-0.873,0.584-1.296c0.548-1.073,1.232-2.054,2.003-2.962
		c0.523,3.067,2.252,5.742,3.533,8.58c0.313,0.694,1.944,0.208,1.65-0.442C9.2,11.424,7.084,8.387,6.951,4.843
		c1.299-1.188,2.769-2.198,4.328-3.016c0.143-0.075,0.565-0.362,0.194-0.463c-0.358-0.097-0.839,0.035-1.156,0.202
		C8.914,2.301,7.604,3.166,6.417,4.148C5.924,4.078,5.259,4.35,5.267,4.789c0.001,0.125,0.024,0.244,0.03,0.367
		C2.339,8.003,0.361,11.685,0.043,16.03c-0.31,4.248,1.057,8.444,3.453,11.924c-0.073,0.059-0.139,0.125-0.185,0.202
		c-0.208,0.347,0.174,0.543,0.467,0.563c0.091,0.007,0.183,0.001,0.275,0.006c0.77,1.017,1.624,1.968,2.556,2.827
		c4.917,4.526,12.35,6.66,18.819,4.678c7.488-2.296,13.349-9.729,13.744-17.56C39.45,13.173,36.545,8.464,32.185,5.328z"></path>
<path fill="#2C2D7F" d="M14.313,31.282c-0.277,0.056-0.812,0.154-0.972,0.43c-0.14,0.238,0.593,0.133,0.649,0.121
		c4.51-0.902,8.673-3.029,12.306-5.815c3.671-2.817,6.888-6.476,8.799-10.718c0.096-0.212-1.441-0.097-1.623,0.307
		c-1.747,3.879-4.563,7.177-7.813,9.887C22.405,28.204,18.498,30.444,14.313,31.282z"></path>
</g>
</svg>
