<svg xmlns="http://www.w3.org/2000/svg" xmlns:xlink="http://www.w3.org/1999/xlink" x="0px" y="0px" width="40.941px" height="44.113px" viewBox="0 0 40.941 44.113" enable-background="new 0 0 40.941 44.113" xml:space="preserve">
<g>
<path fill="#2C2E7F" d="M39.657,15.2c-1.973-0.965-4.632-0.536-6.697-0.181c-2.396,0.411-4.976,0.99-7.305,1.957
		c0.534-1.963,0.989-3.946,1.406-5.944c0.715-3.437,1.29-6.974,1.063-10.495c-0.032-0.509-0.546-0.599-0.971-0.502
		c-2.355,0.535-4.849,0.961-7.019,2.074c-1.842,0.944-3.07,2.515-3.849,4.405c-0.521,1.266-0.85,2.615-1.14,3.949
		c-0.454,2.088-0.942,4.168-1.397,6.255c-0.269,1.235-0.522,2.474-0.761,3.716c-0.207-0.311-0.885-0.439-1.298-0.115
		c-1.698,1.329-4.536,0.075-6.401-0.243c-1.083-0.185-2.186-0.202-3.213,0.228c-1.086,0.455-1.631,1.521-1.887,2.606
		c-0.855,3.635,1.271,7.387,4.927,8.258c1.45,0.344,2.863,0.086,4.006-0.889c0.976-0.834,1.692-1.868,2.798-2.52
		c-0.064,0.681-0.138,1.359-0.176,2.043c-0.047,0.852,1.599,0.623,1.64-0.119c0.224-3.996,0.92-7.939,1.74-11.85
		c0.405-1.93,0.846-3.852,1.28-5.774c0.354-1.569,0.655-3.153,1.177-4.677c0.613-1.789,1.565-3.394,3.274-4.305
		c1.717-0.917,3.73-1.306,5.649-1.712c0.159,4.477-0.86,8.945-1.857,13.279c-0.252,1.095-0.553,2.175-0.876,3.248
		c-0.108,0.061-0.223,0.115-0.33,0.178c-0.249,0.147-0.46,0.514-0.125,0.697c0.053,0.029,0.111,0.037,0.169,0.052
		c-0.851,2.714-1.808,5.396-2.487,8.161c-0.413,1.676-0.627,3.354-0.481,5.076c0.116,1.359,0.414,2.699,0.649,4.039
		c0.38,2.16,0.808,5.041-1.574,6.178c-3.404,1.625-6.98-0.094-8.944-3c-0.845-1.252-1.379-2.781-1.247-4.301
		c0.148-1.697,1.338-2.805,2.852-3.404c0.305-0.121,0.615-0.527,0.38-0.844c-0.255-0.344-0.763-0.26-1.101-0.127
		c-2.768,1.1-4.257,3.561-3.635,6.506c0.585,2.771,2.762,5.17,5.287,6.342c2.621,1.217,6.542,0.76,8.659-1.26
		c1.813-1.73,1.271-4.666,0.883-6.844c-0.365-2.057-0.779-4.053-0.531-6.15c0.147-1.243,0.426-2.468,0.767-3.68
		c2.987-0.219,5.969-0.511,8.893-1.189c2.968-0.688,6.24-1.858,8.108-4.408C41.03,18.456,41.612,16.156,39.657,15.2z M11.532,26.574
		c-1.197,0.561-2.079,1.451-2.961,2.41c-0.897,0.977-1.664,1.324-2.997,0.955c-3.186-0.885-4.811-4.906-3.499-7.879
		c0.727-1.647,3.254-0.684,4.541-0.4c2.051,0.451,4.369,0.813,6.151-0.583c0.062-0.048,0.089-0.094,0.13-0.141
		c-0.345,1.844-0.653,3.694-0.868,5.556C11.871,26.479,11.702,26.495,11.532,26.574z M38.537,19.696
		c-1.692,2.616-5.492,3.488-8.338,4.021c-2.294,0.428-4.62,0.63-6.945,0.801c0.474-1.537,1.024-3.054,1.52-4.56
		c0.192-0.586,0.367-1.176,0.54-1.767c1.566-0.746,3.458-1.259,5.13-1.683c2.231-0.564,4.804-1.156,7.108-0.727
		c0.684,0.127,1.436,0.41,1.702,1.111C39.604,17.812,39.022,18.945,38.537,19.696z"></path>
<path fill="#2C2E7F" d="M17.569,25.375c1.401-0.217,1.82-1.502,1.837-2.754c0.01-0.738-1.617-0.421-1.625,0.176
		c-0.006,0.409-0.042,0.807-0.146,1.204c-0.02,0.076-0.059,0.142-0.09,0.211c-0.049-0.049-0.095-0.101-0.141-0.15
		c-0.319-0.352-0.512-0.799-0.682-1.235c-0.243-0.623-1.845-0.148-1.618,0.434C15.517,24.318,16.239,25.578,17.569,25.375z"></path>
<path fill="#2C2E7F" d="M5.551,23.08c-0.358,0.039-0.802,0.137-1.086,0.375c-0.019,0.016-0.026,0.028-0.038,0.042
		c-0.271,0.063-0.606,0.171-0.7,0.366c-0.403,0.84-0.666,1.908,0.133,2.596c0.874,0.754,2.652,0.424,3.614,0.088
		c0.867-0.303,1.277-1.846,0.953-2.678C8.025,22.834,6.401,22.984,5.551,23.08z M5.171,25.688c-0.433-0.602-0.172-1.434,0.111-2.045
		c0.601-0.022,1.244,0.077,1.527,0.66c0.289,0.595,0.014,1.349-0.262,1.946C6.022,26.266,5.491,26.134,5.171,25.688z"></path>
<path fill="#2C2E7F" d="M12.047,36.869c0.389,1.701,2.313,1.934,3.733,1.547c1.572-0.428,2.705-1.246,2.403-3.02
		c-0.248-1.457-1.441-3.014-2.944-3.283c-0.369-0.066-0.798,0.055-1.131,0.209c-0.115,0.055-0.57,0.346-0.201,0.41
		c0.336,0.061,0.639,0.199,0.916,0.382c-0.253,0.032-0.51,0.115-0.715,0.214C12.724,33.988,11.68,35.264,12.047,36.869z
		 M15.038,33.529c0.039-0.019,0.11-0.06,0.177-0.108c0.448,0.411,0.8,0.944,1.05,1.478c0.387,0.822,0.701,2.434-0.327,2.957
		c-1.001,0.51-2.025-0.564-2.273-1.42C13.331,35.285,13.985,34.031,15.038,33.529z"></path>
</g>
</svg>
