<svg xmlns="http://www.w3.org/2000/svg" xmlns:xlink="http://www.w3.org/1999/xlink" x="0px" y="0px" width="45.16px" height="38.003px" viewBox="0 0 45.16 38.003" enable-background="new 0 0 45.16 38.003" xml:space="preserve">
<path fill="#2C2D7F" d="M0.226,27.667c0,0,5.293,1.891,10.836,2.066c0,0,0.393-4.034,4.729-6.039
	c4.186-1.934,6.551-2.056,6.951-1.659c0.775,0.771-0.22,2.502,0.631,2.669c2.125,0.416,5.855-0.562,7.666-0.633
	c1.881-0.074,2.729,0.18,2.59,0.914c-0.141,0.735-0.512,1.365-0.236,1.418s5.01,0.326,7.057,0.393
	c2.313,0.076,4.711,0.482,4.711,1.726s-1.908,1.948-4.006,2.391c-2.479,0.521-6.061,1.219-6.174,1.711
	c-0.113,0.494,0.436,0.982,0.221,1.465c-0.215,0.484-1.9,0.92-4.395,0.65c-2.492-0.271-5.244-0.74-5.652-0.119
	c-0.406,0.621,1.738,1.506,1.279,2.773c-0.498,1.377-7.59,0.357-11.006-2.412c-3.406-2.762-4.292-4.684-4.292-4.684
	S7.953,30.418,0,28.697L0.226,27.667z"></path>
<path fill="#2C2D7F" d="M2.052,24.878c0,0,1.919-3.889,4.899-6.961c0,0,2.383,2.027,5.863,0.812
	c3.358-1.174,4.738-2.375,4.745-2.809c0.017-0.843-1.464-1.27-1.082-1.819c0.956-1.371,3.548-2.831,4.59-3.763
	c1.083-0.968,1.417-1.563,0.946-1.897c-0.471-0.332-1.016-0.482-0.892-0.66c0.125-0.177,2.603-2.868,3.703-4.003
	c1.24-1.284,2.354-2.796,1.688-3.485s-2.105-0.056-3.506,0.824c-1.653,1.04-4.014,2.576-4.34,2.363
	C18.337,3.267,18.379,2.702,18,2.55c-0.379-0.153-1.547,0.51-2.785,1.997c-1.236,1.488-2.511,3.225-3.072,3.099
	c-0.558-0.126,0.157-1.768-0.778-2.224c-1.016-0.497-4.4,3.874-4.809,7.243c-0.407,3.36,0.133,4.901,0.133,4.901
	s-1.83,1.641-5.317,6.862L2.052,24.878z"></path>
</svg>
