<svg xmlns="http://www.w3.org/2000/svg" xmlns:xlink="http://www.w3.org/1999/xlink" x="0px" y="0px" width="41.358px" height="31.368px" viewBox="0 0 41.358 31.368" enable-background="new 0 0 41.358 31.368" xml:space="preserve">
<path fill="#2C2D7F" d="M20.602,31.368c0,0-10.634-14.313-13.493-19.653c0,0,2.402,6.949,4.23,9.867c0,0-5.273,2.051-8.629-3.609
S0.063,0,0.063,0s14.408,1.24,18.85,8.776s-3.264,10.911-3.264,10.911s-7.327-7.774-7.842-8.637c0,0,7.441,12.53,11.088,17.13
C18.895,28.181,20.724,30.674,20.602,31.368z"></path>
<path fill="#2C2D7F" d="M21.969,30.557c0,0,0.143-0.683,1.729-2.143s10.43-10.453,10.43-10.453s-6.167,4.199-7.418,5.619
c0,0-4.914-4.688-1.166-8.717c3.748-4.029,11.506-4.502,15.814-3.995c0,0-1.19,8.798-4.827,13.375
c-1.197,1.507-3.876,2.135-6.347,1.534l4.306-7.401C34.49,18.376,23.064,29.988,21.969,30.557z"></path>
</svg>
