<svg width="30" height="39" viewBox="0 0 30 39" fill="none" xmlns="http://www.w3.org/2000/svg">
<g clip-path="url(#clip0_34_2)">
<path d="M12.946 38.154C12.946 38.154 14.115 34.667 14.449 33.879C14.449 33.879 14.291 32.268 12.437 31.087C10.582 29.907 5.579 28.223 3.21 26.51C0.84 24.797 0 21.431 0 21.431C0 21.431 2.684 21.323 5.282 23.559C7.88 25.795 10.046 29.389 11.949 29.92C11.949 29.92 12.448 28.214 12.049 27.288C11.65 26.363 9.421 25.344 9.309 23.583C9.309 23.583 11.102 23.432 11.944 24.489C12.786 25.546 13.077 27.888 12.591 30.339C12.591 30.339 15.147 31.883 15.011 33.902C15.011 33.902 13.798 37.396 13.45 38.362L12.946 38.154Z" fill="#2C2D7F"/>
<path d="M15.752 33.462C15.752 33.462 15.708 32.281 17.72 30.651C17.72 30.651 17.623 29.404 17.701 28.758C17.701 28.758 16.985 27.402 17.405 25.724C17.825 24.046 20.099 23.456 20.099 23.456C20.099 23.456 19.999 25.636 19.417 26.729C18.835 27.823 18.16 29.156 18.264 30.224C18.264 30.224 19.528 29.338 20.038 29.167C20.038 29.167 22.936 21.561 29.055 19.193C29.055 19.193 30.356 22.654 27.224 25.632C24.093 28.612 20.028 28.657 15.752 33.462Z" fill="#2C2D7F"/>
<path d="M15.472 31.917C15.472 31.917 14.925 29.202 14.809 27.431C14.693 25.66 13.327 23.69 12.615 23.126C11.903 22.563 6.20499 20.005 4.51099 17.95C2.81599 15.895 2.04799 13.055 2.38699 11.421C2.38699 11.421 5.12599 11.345 6.92299 13.54C8.71999 15.736 9.05699 19.4 9.98999 20.52C9.98999 20.52 10.905 21.31 11.738 21.678C11.738 21.678 9.06999 16.982 9.34899 14.997C9.34899 14.997 11.303 16.366 11.834 17.516C12.365 18.666 11.977 20.506 11.977 20.506C11.977 20.506 12.161 21.68 12.507 21.991C12.852 22.302 15.02 23.978 15.39 26.545C15.759 29.111 15.472 31.917 15.472 31.917Z" fill="#2C2D7F"/>
<path d="M15.752 24.485C15.752 24.485 15.342 23.463 16.6 22.341C16.6 22.341 16.249 20.762 16.402 19.18C16.402 19.18 15.654 17.109 16.172 15.707C16.691 14.305 18.46 12.836 18.46 12.836C18.46 12.836 18.762 14.839 18.028 17.011C17.294 19.183 16.868 20.34 17.131 21.761L19.089 20.297C19.089 20.297 19.182 16.4 20.832 13.637C22.482 10.874 25.155 8.97099 25.155 8.97099C25.155 8.97099 26.332 11.925 24.6 15.964C22.867 20.005 17.903 20.745 15.752 24.485Z" fill="#2C2D7F"/>
<path d="M14.665 22.526C14.665 22.526 13.723 21.241 13.196 19.182C12.669 17.123 10.632 11.411 11.152 7.182C11.672 2.953 14.425 0 14.425 0C14.425 0 17.299 2.798 16.824 6.486C16.349 10.174 12.991 15.69 12.991 15.69L14.665 22.526Z" fill="#2C2D7F"/>
</g>
<defs>
<clipPath id="clip0_34_2">
<rect width="29.325" height="38.363" fill="white"/>
</clipPath>
</defs>
</svg>
